<?xml version="1.0" encoding="utf-8"?>
<!-- Generator: Adobe Illustrator 12.0.0, SVG Export Plug-In . SVG Version: 6.00 Build 51448)  -->
<!DOCTYPE svg PUBLIC "-//W3C//DTD SVG 1.1//EN" "http://www.w3.org/Graphics/SVG/1.1/DTD/svg11.dtd" [
	<!ENTITY ns_svg "http://www.w3.org/2000/svg">
	<!ENTITY ns_xlink "http://www.w3.org/1999/xlink">
]>
<svg  version="1.1" id="Layer_1" xmlns="&ns_svg;" xmlns:xlink="&ns_xlink;" width="291" height="45" viewBox="0 0 291 45"
	 overflow="visible" enable-background="new 0 0 291 45" xml:space="preserve">
<g>
	<g>
		<path display="none" fill="#222222" d="M58.544,19.568c1.056,0,1.988,0.26,2.796,0.78c0.808,0.52,1.436,1.252,1.884,2.196
			c0.448,0.944,0.672,2.04,0.672,3.288s-0.228,2.355-0.684,3.324c-0.456,0.968-1.088,1.716-1.896,2.244
			c-0.808,0.527-1.732,0.791-2.772,0.791c-0.896,0-1.692-0.191-2.388-0.575c-0.675-0.363-1.224-0.925-1.572-1.608V32h-2.952V14.336
			h2.976v7.368c0.363-0.667,0.914-1.214,1.584-1.572C56.88,19.756,57.664,19.568,58.544,19.568z M57.752,29.84
			c0.992,0,1.76-0.352,2.304-1.056s0.816-1.688,0.816-2.952c0-1.248-0.272-2.212-0.816-2.892s-1.32-1.02-2.328-1.02
			s-1.784,0.344-2.328,1.032c-0.544,0.688-0.816,1.664-0.816,2.928c0,1.28,0.272,2.261,0.816,2.94S56.728,29.84,57.752,29.84z
			 M66.512,32V19.88h2.976V32H66.512z M66.32,14.384h3.336v2.952H66.32V14.384z M79.304,19.592c0.464,0,0.864,0.064,1.2,0.192
			L80.48,22.52c-0.502-0.206-1.041-0.312-1.584-0.312c-1.024,0-1.804,0.296-2.34,0.888c-0.536,0.592-0.804,1.377-0.804,2.353V32
			h-2.976v-8.688c0-1.28-0.064-2.424-0.192-3.433h2.808l0.24,2.136c0.304-0.784,0.784-1.384,1.44-1.8
			C77.728,19.8,78.472,19.592,79.304,19.592z M93.536,14.336V32h-2.952v-1.943C90.221,30.723,89.67,31.27,89,31.628
			c-0.688,0.376-1.472,0.563-2.352,0.563c-1.04,0-1.968-0.264-2.784-0.791c-0.816-0.528-1.452-1.276-1.908-2.244
			c-0.456-0.969-0.684-2.076-0.684-3.324s0.224-2.344,0.672-3.288c0.448-0.944,1.08-1.676,1.896-2.196
			c0.816-0.52,1.752-0.78,2.808-0.78c0.864,0,1.636,0.18,2.316,0.54c0.662,0.343,1.209,0.873,1.572,1.524v-7.296H93.536z
			 M87.44,29.84c0.992,0,1.764-0.344,2.316-1.031c0.552-0.688,0.828-1.664,0.828-2.929c0-1.264-0.272-2.239-0.816-2.928
			c-0.544-0.688-1.312-1.032-2.304-1.032c-1.008,0-1.788,0.34-2.34,1.02c-0.552,0.68-0.828,1.644-0.828,2.892
			c0,1.264,0.276,2.248,0.828,2.952C85.676,29.488,86.448,29.84,87.44,29.84z M103.712,19.568c1.056,0,1.988,0.26,2.796,0.78
			c0.808,0.52,1.436,1.252,1.884,2.196c0.448,0.944,0.672,2.04,0.672,3.288s-0.228,2.355-0.684,3.324
			c-0.456,0.968-1.088,1.716-1.896,2.244c-0.808,0.527-1.732,0.791-2.772,0.791c-0.896,0-1.692-0.191-2.388-0.575
			c-0.676-0.363-1.225-0.925-1.572-1.608V32H96.8V14.336h2.976v7.368c0.363-0.667,0.914-1.214,1.584-1.572
			C102.048,19.756,102.832,19.568,103.712,19.568z M102.92,29.84c0.992,0,1.76-0.352,2.304-1.056s0.816-1.688,0.816-2.952
			c0-1.248-0.272-2.212-0.816-2.892s-1.32-1.02-2.328-1.02s-1.784,0.344-2.328,1.032c-0.544,0.688-0.816,1.664-0.816,2.928
			c0,1.28,0.272,2.261,0.816,2.94S101.896,29.84,102.92,29.84z M117.176,32.191c-1.232,0-2.316-0.256-3.252-0.768
			c-0.923-0.499-1.676-1.264-2.16-2.195c-0.504-0.953-0.756-2.068-0.756-3.349s0.252-2.396,0.756-3.348
			c0.484-0.932,1.236-1.697,2.16-2.196c0.936-0.512,2.02-0.768,3.252-0.768c1.216,0,2.288,0.256,3.216,0.768
			c0.918,0.502,1.666,1.267,2.148,2.196c0.504,0.952,0.756,2.067,0.756,3.348s-0.252,2.396-0.756,3.349
			c-0.482,0.929-1.229,1.693-2.148,2.195C119.464,31.936,118.392,32.191,117.176,32.191z M117.152,29.84
			c1.024,0,1.804-0.332,2.34-0.996c0.536-0.664,0.804-1.652,0.804-2.964c0-1.296-0.272-2.284-0.816-2.964
			c-0.544-0.68-1.312-1.02-2.304-1.02c-1.008,0-1.784,0.34-2.328,1.02c-0.544,0.68-0.816,1.668-0.816,2.964
			c0,1.312,0.268,2.3,0.804,2.964S116.144,29.84,117.152,29.84z M137.48,19.88V32h-2.952v-1.943
			c-0.363,0.666-0.914,1.213-1.584,1.571c-0.688,0.376-1.472,0.563-2.352,0.563c-1.056,0-1.992-0.256-2.808-0.768
			c-0.816-0.512-1.448-1.24-1.896-2.184c-0.448-0.944-0.672-2.04-0.672-3.288s0.228-2.356,0.684-3.324s1.092-1.72,1.908-2.256
			s1.744-0.804,2.784-0.804c0.88,0,1.664,0.188,2.352,0.564s1.216,0.9,1.584,1.572V19.88H137.48z M131.408,29.84
			c0.992,0,1.76-0.344,2.304-1.031c0.544-0.688,0.816-1.656,0.816-2.904c0-1.28-0.272-2.264-0.816-2.952
			c-0.544-0.688-1.32-1.032-2.328-1.032c-0.992,0-1.764,0.356-2.316,1.068c-0.552,0.712-0.828,1.7-0.828,2.964
			c0,1.248,0.276,2.208,0.828,2.88C129.62,29.504,130.4,29.84,131.408,29.84z M147.271,19.592c0.465,0,0.864,0.064,1.201,0.192
			l-0.025,2.736c-0.502-0.206-1.04-0.312-1.584-0.312c-1.023,0-1.803,0.296-2.339,0.888s-0.804,1.377-0.804,2.353V32h-2.976v-8.688
			c0-1.28-0.064-2.424-0.192-3.433h2.808l0.24,2.136c0.304-0.784,0.784-1.384,1.44-1.8C145.696,19.8,146.439,19.592,147.271,19.592z
			 M161.504,14.336V32h-2.952v-1.943c-0.363,0.666-0.913,1.213-1.584,1.571c-0.688,0.376-1.472,0.563-2.352,0.563
			c-1.04,0-1.968-0.264-2.784-0.791c-0.816-0.528-1.452-1.276-1.908-2.244c-0.456-0.969-0.684-2.076-0.684-3.324
			s0.224-2.344,0.672-3.288c0.447-0.944,1.08-1.676,1.896-2.196c0.815-0.52,1.752-0.78,2.808-0.78c0.864,0,1.636,0.18,2.315,0.54
			c0.662,0.343,1.209,0.873,1.572,1.524v-7.296H161.504L161.504,14.336z M155.408,29.84c0.992,0,1.764-0.344,2.316-1.031
			c0.551-0.688,0.827-1.664,0.827-2.929c0-1.264-0.272-2.239-0.815-2.928c-0.545-0.688-1.313-1.032-2.305-1.032
			c-1.008,0-1.787,0.34-2.34,1.02c-0.552,0.68-0.828,1.644-0.828,2.892c0,1.264,0.276,2.248,0.828,2.952
			C153.645,29.488,154.416,29.84,155.408,29.84z"/>
	</g>
	<path fill="none" stroke="#222222" stroke-width="0.5" stroke-opacity="0.218" d="M12.454,37L9,39.784l6.598,0.852L12.299,43
		L26,40.636"/>
	<path fill="#47D5FE" d="M42.273,4C27.487,4,15.326,15.078,14.037,29.157c2.457-3.374,5.466-6.621,9.223-10.354
		c0.284-0.281,0.74-0.286,1.029-0.01c0.286,0.273,0.29,0.722,0.01,1.001c-0.906,0.9-1.802,1.812-2.688,2.732l-0.175,0.184
		c-4.643,4.842-7.962,9.058-10.372,14.291c-0.161,0.353-0.004,0.769,0.348,0.93c0.006,0.003,0.011,0.005,0.017,0.007
		c0.364,0.16,0.79,0.003,0.963-0.355c0.852-1.833,1.846-3.596,2.974-5.273c10.159-0.252,19.406-5.757,24.252-14.515
		c0.121-0.219,0.115-0.486-0.016-0.7c-0.135-0.214-0.372-0.344-0.625-0.344h-2.694l4.83-2.689c0.153-0.084,0.27-0.22,0.328-0.384
		c1.026-2.879,1.553-5.912,1.559-8.969C42.995,4.312,42.669,3.995,42.273,4z"/>
</g>
<rect x="48" y="14" fill="none" width="156" height="40"/>
<text transform="matrix(1 0 0 1 48 30.5527)" font-family="'Arial'" font-size="25">AcuBoard</text>
</svg>
